# xmcd
# 
# Track frame offsets:
#       150
#       17055
#       32421
#       61530
#       84171
#       104191
#       124664
#       155501
#       193875
# 
# Disc length: 3128 seconds
# 
# Revision: 0
# Processed by: cddbd v1.5.1PL2 Copyright (c) Steve Scherf et al.
# Submitted via: JeFCo 0.6PL040606
# 
DISCID=6a0c3609
DTITLE=Tift Merritt - Home is Loud
DYEAR=1900
DGENRE=Country
TTITLE0=Write my ticket home
TTITLE1=Your love made a U turn
TTITLE2=Ain't looking closely
TTITLE3=Laid a highway
TTITLE4=Supposed to make you happy
TTITLE5=Neighbourhood
TTITLE6=Tambourine
TTITLE7=Shadow in the way
TTITLE8=When I crossover
EXTD=
EXTT0=
EXTT1=
EXTT2=
EXTT3=
EXTT4=
EXTT5=
EXTT6=
EXTT7=
EXTT8=
PLAYORDER=
